<?xml version="1.0" standalone="no"?><!DOCTYPE svg PUBLIC "-//W3C//DTD SVG 1.1//EN" "http://www.w3.org/Graphics/SVG/1.1/DTD/svg11.dtd"><svg t="1754636039014" class="icon" viewBox="0 0 1024 1024" version="1.1" xmlns="http://www.w3.org/2000/svg" p-id="6488" xmlns:xlink="http://www.w3.org/1999/xlink" width="200" height="200"><path d="M277.671958 410.412698c0.451499-7.223986 0.451499-14.899471 0.902998-22.123456 0.451499-7.675485 1.354497-15.802469 2.257495-23.477955 0.902998-6.320988 1.805996-12.190476 3.160494-18.962962 2.257496-11.287478 4.514991-23.026455 8.126984-34.313933 13.544974-46.05291 35.216931-88.042328 65.015873-125.516755 15.802469-19.414462 33.410935-37.925926 52.373898-54.179894 0.451499-0.451499 1.354497-0.902998 1.805997-1.805997 0.451499-0.451499 1.354497-0.451499 1.805996 0 0.902998 0.902998 1.805996 1.805996 2.708995 2.257496 24.832451 24.380952 49.213404 48.761905 74.045855 72.691358l2.708995 2.708994v0.902999c-0.902998 0.902998-1.354497 1.805996-2.257496 2.708994-9.481481 9.932981-18.511464 19.414462-27.541446 28.895944-5.417989 5.869489-11.287478 11.287478-16.705467 17.608465-0.902998 0.902998-1.354497 1.354497-2.257496 1.805997h-0.902998c-0.451499-0.451499-1.354497-0.902998-1.805997-1.805997-6.772487-7.223986-13.093474-14.447972-19.865961-21.220458-1.805996-1.805996-3.160494-3.611993-4.514991-4.96649-1.354497-1.805996-1.805996-1.354497-3.611993 0.451499l-1.354497 1.354497c-4.063492 4.96649-8.126984 10.38448-11.738977 15.35097-15.35097 21.220459-26.638448 44.246914-34.765432 69.530864-4.063492 12.641975-7.675485 25.73545-10.38448 38.828924-1.354497 7.223986-2.708995 14.899471-3.611993 22.574956-1.805996 13.544974-2.257496 26.638448-1.805997 40.634921 0 7.675485 0.902998 14.899471 1.805997 22.574956 0.451499 5.869489 1.354497 12.190476 2.708995 18.511464 1.805996 10.835979 4.063492 21.671958 7.223986 32.507936 6.772487 23.477954 17.156966 46.504409 30.70194 68.176367 5.869489 9.481481 11.738977 18.059965 18.962963 26.186949 0.451499 0.902998 1.354497 1.354497 2.257495 2.257496h0.902998c0.451499-0.451499 0.902998-0.902998 1.805997-1.354498 1.805996-1.805996 3.611993-3.160494 4.514991-4.514991 21.671958-21.671958 43.795414-42.892416 65.467372-64.564374 10.835979-10.835979 21.671958-20.768959 32.507937-31.153439 13.093474-12.641975 23.477954-27.541446 29.347442-45.149912 2.257496-6.320988 3.611993-12.641975 4.514992-19.414462 1.354497-7.675485 1.354497-15.802469 0.451499-23.477954-1.805996-16.705467-6.772487-32.507937-16.253969-46.504409-0.902998-1.354497-1.805996-2.708995-2.708994-3.611993-0.451499-0.451499-0.451499-1.354497 0-1.805997 0.902998-0.902998 1.354497-1.805996 2.257495-2.708994l43.343916-46.05291 2.257495-2.257496c0.451499-0.451499 0.902998-0.451499 1.354498 0l4.063492 4.063492c2.708995 3.611993 5.417989 6.772487 7.675485 10.835979 12.641975 18.962963 21.671958 39.731922 26.186948 62.306878 2.708995 13.093474 3.611993 26.638448 3.611993 40.634921-1.354497 34.765432-11.738977 66.821869-32.507936 95.266314-5.417989 8.126984-11.738977 15.35097-18.962963 22.123457-14.899471 14.899471-30.250441 29.798942-45.149912 44.246913l-58.694885 57.340388-54.179894 52.825397c-0.902998 0.902998-1.805996 1.805996-2.708995 2.257496-0.902998 0.902998-1.805996 0.902998-2.708995 0s-1.805996-1.354497-2.708995-2.257496c-1.805996-1.805996-3.611993-3.611993-5.417989-4.96649-28.895944-26.186949-54.179894-55.534392-74.045855-88.945327-18.962963-31.604938-32.959436-65.467372-41.08642-101.135802-2.257496-8.578483-3.611993-17.608466-4.96649-26.186949-0.902998-5.869489-1.805996-11.738977-2.708995-18.059965-0.451499-16.253968-0.451499-18.962963-0.902998-37.925926z" fill="#01BF8B" p-id="6489"></path><path d="M749.488536 411.767196c0 9.029982-0.451499 18.059965-1.354497 26.638448-0.451499 7.223986-1.354497 14.447972-2.708995 21.671957-4.063492 30.250441-12.190476 59.146384-23.929453 87.590829-10.38448 24.380952-23.026455 47.858907-38.377425 69.530865-17.156966 24.832451-37.022928 46.955908-59.146385 66.821869-2.708995 2.257496-4.96649 4.063492-7.223986 6.772487-0.451499 0.451499-0.902998 0.902998-1.805996 0.902998h-0.902998c-0.902998-0.451499-1.805996-1.354497-2.257496-1.805996-25.283951-24.380952-49.664903-48.761905-74.948854-73.142858l-1.354497-1.354497c-0.451499-0.451499-0.451499-1.354497 0-1.805996 0.902998-0.902998 1.805996-2.257496 3.160494-3.160494 5.869489-6.320988 11.738977-12.641975 18.059965-18.962963 8.126984-8.578483 16.705467-17.608466 24.832451-26.186949l2.257496-2.257496c0.451499-0.451499 0.902998-0.451499 1.354497 0 1.354497 1.805996 3.160494 3.160494 4.063492 4.514992 6.772487 7.675485 13.093474 15.35097 19.865961 23.026455 0.451499 0.902998 1.354497 1.354497 2.257496 2.257495h0.902998l3.611993-3.611993c8.578483-10.835979 16.253968-22.123457 23.026455-33.862434 14.899471-25.73545 25.283951-52.825397 31.604938-81.269841 1.805996-8.126984 3.611993-16.253968 4.063493-24.832451 1.805996-13.996473 2.708995-27.992945 2.257495-41.989418 0-3.611993 0-7.223986-0.451499-10.835979-0.451499-5.869489-0.902998-11.738977-1.805996-18.059965-0.451499-4.96649-1.354497-9.932981-2.257496-14.899471-1.805996-11.738977-4.514991-23.477954-8.126984-34.765432-6.772487-22.574956-16.253968-44.246914-28.444445-64.564374-6.320988-10.835979-13.093474-20.31746-21.220458-30.250441l-1.354498-1.354497c-0.451499-0.451499-0.902998-0.451499-1.354497 0-1.805996 1.354497-3.611993 3.160494-4.514991 4.514991-8.578483 8.126984-16.705467 16.705467-25.283951 24.832452-17.608466 17.608466-35.216931 34.313933-52.825397 51.922398-6.772487 6.772487-13.996473 13.093474-20.768959 19.865961-4.063492 4.063492-8.578483 8.578483-12.190476 13.544974-10.835979 13.544974-17.608466 28.895944-20.76896 46.05291-1.354497 6.772487-2.257496 13.093474-1.805996 19.865961 0.451499 20.31746 5.869489 39.280423 17.156966 56.43739 0.451499 0.902998 1.354497 1.805996 1.805997 2.708995 0.451499 0.451499 0.451499 1.354497 0 1.805996s-0.902998 1.354497-1.805997 1.805997c-7.675485 8.578483-15.802469 16.705467-23.477954 25.28395-6.320988 6.772487-13.093474 13.996473-19.414462 20.76896l-2.708994 2.708994c-0.451499 0.451499-1.354497 0.451499-1.805997 0l-0.902998-0.902998c-9.029982-10.835979-16.705467-21.671958-22.574956-33.862434-3.611993-8.126984-6.772487-16.705467-9.932981-25.28395-3.160494-9.481481-4.96649-18.511464-6.320987-27.992946-2.257496-12.641975-3.160494-25.73545-2.257496-37.925926 1.354497-19.414462 5.869489-38.377425 14.447972-56.437389 7.223986-15.35097 16.253968-28.895944 27.089947-41.537919 3.611993-4.514991 8.126984-9.481481 12.190476-13.544974 28.444444-28.444444 56.888889-56.888889 86.236332-84.881834 23.026455-22.123457 45.601411-44.246914 68.627866-66.37037l3.611993-3.611993c0.451499-0.451499 1.354497-0.451499 1.805996 0l1.354497 1.354497c23.026455 20.31746 44.246914 42.892416 62.758378 67.724868 19.414462 26.186949 35.216931 55.082892 46.504409 86.236331 5.417989 14.899471 9.932981 29.798942 13.093474 45.149912 2.257496 9.481481 3.611993 18.962963 5.41799 27.992945 0.902998 6.320988 1.805996 13.093474 2.708995 19.414462 0.902998 6.320988 0.902998 13.093474 1.354497 19.414463 0.902998 3.611993 0.451499 7.675485 0.902998 12.190476z" fill="#01BF8B" p-id="6490"></path><path d="M72.239859 828.049383v-62.758378-2.257495h29.347443c1.354497 0 2.257496 0.451499 3.160493 1.354497 0.451499 0.451499 0.902998 1.354497 1.805997 1.805997 4.063492 5.869489 8.126984 11.287478 12.190476 17.156966 14.899471 21.220459 29.798942 42.440917 44.246914 63.209877 3.160494 4.063492 5.869489 8.578483 8.126984 13.093474 0.451499 0.902998 1.354497 1.805996 1.805996 3.160494h0.451499v-1.805997-20.31746-74.045855-2.257496c0-0.451499 0.451499-0.451499 0.902999-0.451499H200.014109s0.451499 0 0.451499 0.451499V892.613757c0 2.708995 0 2.257496-2.257495 2.257495h-23.026455c-2.257496 0-4.514991-0.902998-5.869489-2.257495-0.902998-0.902998-1.805996-1.805996-2.257495-2.708995-2.708995-3.611993-4.96649-7.223986-7.675485-10.835979-16.705467-23.477954-33.862434-46.955908-50.567902-70.433862-1.805996-2.708995-3.611993-5.417989-5.417989-8.578484-0.902998-1.805996-1.805996-3.611993-3.160494-5.417989l-0.451499-0.451499H99.329806V806.377425c0 26.186949 0.451499 52.373898 0.451499 78.560847v9.93298H73.594356s-0.451499 0-0.451499-0.451499v-1.805996-32.507937c-0.902998-11.738977-0.902998-21.671958-0.902998-32.056437zM848.818342 828.500882v-62.758378-2.257495s0-0.451499 0.451499-0.451499H875.005291s0.451499 0 0.451499 0.451499v78.109347h0.451499c0.902998-0.451499 1.805996-1.354497 2.257496-1.805996l1.354497-1.354498c11.287478-9.932981 22.123457-19.865961 32.959436-29.798941 1.354497-0.902998 2.257496-2.257496 3.611993-3.160494 1.805996-1.805996 3.611993-2.257496 6.320987-2.257496H951.760141v0.451499c-1.805996 1.805996-4.063492 3.611993-6.320988 5.41799-11.287478 9.481481-22.123457 18.511464-33.410934 27.992945-0.451499 0.451499-0.902998 0.451499-1.354498 0.902998v0.451499c0.451499 0.451499 0.451499 0.902998 0.902999 1.354498 13.996473 17.156966 27.541446 34.313933 41.537918 51.922398 0 0.451499 0.451499 0.451499 0.902999 0.902999 0 0 0.451499 0.451499 0.451499 0.902998h-26.186949c-2.708995 0-4.96649-0.902998-6.772487-2.708995-0.902998-0.902998-1.805996-1.805996-2.257495-2.708995-2.708995-3.611993-5.417989-7.675485-8.126985-11.287478-5.869489-7.675485-11.287478-15.35097-17.156966-23.026455l-0.902998-0.902998h-0.451499s-0.451499 0-0.4515 0.451499c-4.96649 4.063492-9.481481 8.126984-14.447971 12.190477-0.451499 0.451499-0.902998 0.902998-1.805997 1.354497s-1.354497 1.354497-1.354497 2.257495V892.613757s0 0.451499-0.451499 0.451499h-24.832452-0.902998v-0.451499-1.805997c0.451499-20.768959 0.451499-41.537919 0.451499-62.306878zM451.499118 893.516755c-0.451499-0.451499-0.902998-1.354497-0.902998-1.805997-4.063492-6.772487-5.869489-14.447972-5.869489-22.574956v-28.444444c0-3.611993 0-7.675485-0.451499-11.287478 0-2.257496-0.451499-4.063492-0.902998-6.320988-1.354497-5.869489-4.514991-10.38448-9.029982-13.996472-1.805996-1.354497-3.160494-2.257496-4.966491-3.160494-3.160494-1.805996-6.320988-3.160494-9.93298-4.063492-4.96649-1.354497-9.932981-1.805996-15.35097-2.257496h-13.544974c-4.514991 0-9.029982 0.451499-13.544973 1.354498-3.611993 0.451499-7.675485 1.805996-11.287478 3.160493-2.708995 0.902998-4.96649 2.257496-7.675485 4.063493-6.320988 4.514991-10.38448 10.38448-12.641976 17.608465v0.902998c0.902998 0 2.257496 0.451499 3.160494 0.451499 3.160494 0.451499 5.869489 0.451499 8.578483 0.902999 3.160494 0.451499 6.772487 0.902998 10.38448 1.354497h1.805997c0.451499-0.451499 0.451499-0.902998 0.902998-1.805996 2.257496-4.96649 5.869489-8.126984 10.835979-9.481482 1.805996-0.902998 4.063492-0.902998 6.320987-1.354497 2.257496 0 4.514991-0.451499 6.320988-0.451499H401.834215c1.805996 0 3.160494 0 4.96649 0.451499 1.805996 0 3.611993 0.902998 4.966491 1.805996 2.257496 1.354497 3.611993 3.160494 4.514991 4.966491 0.451499 1.354497 0.902998 2.257496 0.902998 3.611992v1.354498c0 1.354497-0.902998 2.257496-1.805996 3.160494-0.451499 0-1.354497 0.451499-1.805997 0.451499-1.805996 0.451499-4.063492 0.902998-6.320987 1.354497-5.869489 1.354497-11.738977 2.708995-17.608466 3.611993-5.417989 1.354497-10.835979 2.257496-16.253968 3.160494-3.160494 0.451499-6.320988 1.354497-9.932981 2.257495-3.160494 0.902998-6.772487 2.257496-9.93298 4.063493-2.257496 1.354497-4.96649 3.160494-6.772487 4.96649-3.611993 3.611993-5.869489 8.126984-6.320988 13.093474-0.451499 4.063492 0 8.126984 1.354497 12.190476 1.805996 4.96649 4.96649 9.029982 9.932981 11.738978 1.805996 0.902998 3.160494 1.805996 4.96649 1.805996 5.869489 1.805996 11.738977 2.708995 18.059965 3.160494h7.675485c3.611993-0.451499 7.675485-0.902998 11.287478-1.805997 5.869489-1.805996 11.738977-4.514991 17.156967-7.675485 1.805996-0.902998 3.160494-2.257496 4.514991-3.160493 0.451499-0.451499 1.354497-0.902998 1.805996-1.805997 0.451499-0.451499 0.451499-0.451499 0.902998 0 0 0.451499 0.451499 0.902998 0.4515 1.354497 1.354497 3.160494 3.160494 6.320988 4.514991 9.481482 0 0.451499 0.451499 1.354497 0.902998 1.805996 0.451499 0.902998 1.354497 1.805996 2.708995 1.805997h23.477954c1.354497 0.451499 1.805996 0 1.354497 0z m-41.537919-22.123457c-1.354497 0.902998-2.708995 1.805996-4.514991 2.708995-3.160494 1.354497-6.772487 2.708995-10.38448 3.160494-3.160494 0.451499-6.320988 0.902998-10.384479 0.902998-2.708995 0-6.320988-0.451499-9.481482-1.354498-0.902998 0-1.805996-0.451499-2.708995-0.902998-2.257496-0.902998-3.611993-2.708995-4.514991-4.96649-0.451499-1.805996-0.451499-4.063492 0-6.320988s1.805996-4.063492 3.611993-5.417989c0.451499-0.451499 1.354497-0.902998 1.805997-1.354497 4.063492-1.805996 8.578483-3.611993 13.093474-4.966491 2.257496-0.451499 4.063492-0.902998 6.320988-1.354497 4.96649-0.902998 9.932981-1.805996 14.899471-3.160494 3.611993-0.902998 7.223986-2.257496 10.835979-4.063492 0.451499 0 0.902998-0.451499 1.354497-0.451499h0.451499c0 0.902998 0.451499 1.805996 0.451499 2.257495 0.902998 11.738977-4.514991 20.31746-10.835979 25.283951zM328.239859 867.781305c-3.160494-0.451499-6.772487-0.902998-10.38448-1.354497-2.708995-0.451499-5.417989-0.451499-8.126984-0.902998-2.708995-0.451499-5.869489-0.902998-8.578483-1.354498h-0.902998c-0.451499 0.451499-0.451499 0.902998-0.902999 1.354498-0.902998 1.354497-1.805996 2.708995-2.257495 3.611992-1.805996 2.708995-4.514991 4.514991-7.675485 5.869489-2.257496 0.902998-4.514991 1.805996-6.772487 1.805996-1.354497 0.451499-2.708995 0.451499-4.063492 0.4515h-6.772487c-2.708995 0-5.417989-0.451499-8.126984-1.354498-5.417989-1.805996-9.932981-4.96649-13.544974-9.93298l-1.354497-2.708995c-0.902998-3.160494-1.805996-5.869489-2.708995-9.029982v-0.902999H326.433862s0.451499 0 0.4515-0.451499v-1.354497c0-3.611993-0.451499-7.675485-0.902999-11.287478 0-3.611993-0.902998-7.223986-1.805996-10.38448-2.257496-8.126984-6.772487-14.899471-13.544974-20.31746-4.063492-3.160494-8.126984-5.417989-13.093474-6.772487-7.223986-2.257496-14.447972-3.611993-22.123457-4.063492h-9.029982c-3.611993 0.451499-7.223986 0.902998-11.287478 1.805997s-7.675485 1.805996-11.287478 3.611992c-7.223986 3.160494-13.093474 8.126984-17.156967 14.899471-2.708995 4.063492-4.514991 8.578483-5.869488 13.093475s-1.805996 8.578483-1.805997 13.093474c0 4.96649 0 9.932981 1.805997 14.899471 1.354497 5.417989 3.611993 10.38448 7.223986 14.899471 4.514991 5.869489 10.38448 9.932981 17.156966 12.641975 5.417989 2.257496 10.835979 3.611993 16.253968 4.514991 4.063492 0.451499 8.126984 0.902998 12.641976 1.354498 5.417989 0 10.835979-0.451499 16.253968-1.354498 3.611993-0.451499 6.772487-1.354497 10.38448-2.257495 4.063492-1.354497 7.675485-2.708995 10.835979-4.96649 4.063492-2.257496 7.675485-5.417989 10.384479-9.029983 2.257496-2.708995 4.063492-5.417989 5.869489-8.126984 0.451499 0.451499 0.902998 0.451499 0.451499 0 0.451499 0.451499 0 0 0 0z m-81.72134-33.862434c0.902998-3.611993 2.708995-6.772487 4.96649-9.481481 1.354497-1.805996 3.160494-3.160494 4.96649-4.063492 3.611993-1.805996 7.675485-3.160494 11.287478-4.063492 2.708995-0.451499 5.417989-0.451499 8.126984-0.451499 3.611993 0.451499 7.223986 1.354497 10.38448 2.257495 0.451499 0 0.902998 0.451499 1.354497 0.451499 4.96649 1.805996 8.126984 5.417989 10.38448 10.38448 0.902998 1.805996 1.805996 4.063492 1.805996 6.320988 0 1.354497 0 2.257496-0.902998 3.160493H246.067019c-0.451499 0-0.451499 0-0.451499-0.451499 0.451499-0.902998 0.451499-2.708995 0.902999-4.063492z" fill="#020202" p-id="6491"></path><path d="M726.462081 848.366843v-42.892416-1.805997H752.197531s0.451499 0 0.451499 0.451499V817.213404s0 0.451499 0.451499 0.451499h0.451499c0.451499-0.451499 1.354497-1.354497 1.805997-2.257496 1.354497-1.805996 3.160494-3.160494 4.96649-4.514991 4.96649-4.063492 10.38448-6.320988 16.253968-8.126984 4.96649-1.354497 9.932981-1.805996 14.899471-1.354497 4.96649 0 9.481481 0.902998 14.447972 2.708994 3.160494 1.354497 6.320988 3.160494 9.029982 5.41799 3.160494 3.160494 5.869489 6.772487 7.223986 10.835979 0.902998 2.257496 1.354497 4.96649 1.805997 7.223986 0.451499 3.611993 0.902998 7.223986 0.902998 10.835978V893.516755s0 0.451499-0.451499 0.451499h-23.929453-0.902999l-0.451499-0.451499v-2.257496-48.761905-4.96649c0-2.708995-0.902998-4.96649-1.805996-7.675485-1.805996-4.063492-4.514991-6.772487-8.126984-8.126984-0.902998-0.451499-1.805996-0.902998-3.160494-0.902998-1.354497-0.451499-2.708995-0.451499-4.063492-0.451499-3.160494 0-5.869489 0-9.029983 0.451499-2.708995 0.451499-4.96649 1.354497-7.223986 2.708995-4.96649 2.708995-8.126984 6.320988-9.93298 11.287477-0.902998 3.160494-1.805996 5.869489-1.805997 9.029983V894.419753H729.171076s-0.451499 0-0.451499-0.451499v-1.805997c-2.257496-15.35097-2.257496-29.347443-2.257496-43.795414z" fill="#010101" p-id="6492"></path><path d="M552.183422 828.049383v-62.758378-1.805996c0-0.451499 0-0.902998 0.902998-0.902998h25.735449c0.451499 0 0.451499 0.451499 0.4515 0.451499V871.393298h74.497354V892.613757s0 0.451499-0.451499 0.451499h-101.135802v-0.451499-1.805997-62.758377z" fill="#020202" p-id="6493"></path><path d="M466.850088 848.366843v-42.892416c0-2.708995 0-2.708995 2.257496-2.708995H493.037037s0.451499 0 0.451499 0.451499V816.761905c0-0.451499 0.451499-0.902998 0.902998-1.354498 1.354497-2.257496 3.160494-4.514991 4.966491-6.320987 2.708995-2.708995 5.417989-4.96649 9.029982-6.320988 1.805996-0.902998 4.063492-1.354497 5.869489-1.805996 2.257496-0.451499 4.96649-0.451499 7.675485-0.451499 4.514991 0 8.578483 0.902998 13.093474 2.257495 0.451499 0 1.354497 0.451499 1.805996 0.902998 2.708995 1.354497 2.257496 0.451499 1.354498 3.160494-2.708995 5.417989-4.96649 10.835979-7.675485 16.253968 0 0.451499-0.451499 0.902998-0.451499 1.354498h-0.451499c-0.451499 0-0.902998-0.451499-1.805997-0.902998-4.514991-1.805996-8.578483-2.708995-13.544973-2.257496-2.257496 0-4.514991 0.902998-6.320988 1.805996-4.063492 1.805996-7.675485 4.063492-9.932981 7.675485-1.354497 2.257496-2.257496 4.96649-3.160493 7.223986-0.451499 2.257496-0.902998 4.96649-0.902999 7.223986v47.407408h-26.186949l-0.451499-0.4515v-0.451499-1.805996c-0.451499-13.093474-0.451499-27.089947-0.451499-41.537919z" fill="#030303" p-id="6494"></path><path d="M674.088183 848.366843v-42.892416c0-2.708995 0-2.708995 2.257496-2.708995H699.372134s0.451499 0 0.451499 0.451499v87.13933c0 3.160494 0.451499 2.708995-2.708995 2.708995h-22.123456c-0.902998 0-0.902998 0-0.902999-0.902999v-1.805996-41.989418zM687.181658 787.865961h-12.641975-0.4515v-1.354497-18.059965-1.354497s0-0.451499 0.4515-0.451499h25.28395s0.451499 0 0.451499 0.451499V787.865961s0 0.451499-0.451499 0.451499h-1.805996c-3.611993-0.451499-7.223986-0.451499-10.835979-0.451499z" p-id="6495"></path></svg>